<svg width="463.55999755859375px" height="328.8400024414062px" xmlns="http://www.w3.org/2000/svg" viewBox="18.220001220703125 -89.42000122070311 463.55999755859375 328.8400024414062" style="background: rgb(253, 253, 253);" preserveAspectRatio="xMidYMid"><defs><linearGradient id="editing-gradient-gradient" x1="0.5522642316338267" x2="0.44773576836617335" y1="0.9972609476841368" y2="0.0027390523158632996" gradientUnits="objectBoundingBox"><stop offset="0" stop-color="#ffffff"></stop><stop offset="1" stop-color="#ffffff"></stop></linearGradient></defs><g><g transform="translate(89.07000494003296, 142.37500381469727)"><path d="M28.03 0L2.31 0L15.09-132.29L59.91-132.29L72.53 0L47.43 0L45.58-21.41L29.57-21.41L28.03 0ZM36.50-109.80L31.57-42.50L43.58-42.50L37.73-109.80L36.50-109.80ZM118.43 0L91.94 0L91.94-106.88L76.23-106.88L76.23-132.29L134.13-132.29L134.13-106.88L118.43-106.88L118.43 0ZM173.10 1.23L173.10 1.23Q157.08 1.23 148.76-8.55L148.76-8.55L148.76-8.55Q140.45-18.33 140.45-36.04L140.45-36.04L140.45-99.02L140.45-99.02Q140.45-116.12 148.76-124.82L148.76-124.82L148.76-124.82Q157.08-133.52 173.10-133.52L173.10-133.52L173.10-133.52Q189.11-133.52 197.43-124.82L197.43-124.82L197.43-124.82Q205.74-116.12 205.74-99.02L205.74-99.02L205.74-36.04L205.74-36.04Q205.74-18.17 197.43-8.47L197.43-8.47L197.43-8.47Q189.11 1.23 173.10 1.23L173.10 1.23ZM173.10-23.10L173.10-23.10Q176.64-23.10 177.87-26.18L177.87-26.18L177.87-26.18Q179.10-29.26 179.10-34.80L179.10-34.80L179.10-99.48L179.10-99.48Q179.10-103.80 177.95-106.49L177.95-106.49L177.95-106.49Q176.79-109.19 173.25-109.19L173.25-109.19L173.25-109.19Q166.63-109.19 166.63-99.18L166.63-99.18L166.63-34.65L166.63-34.65Q166.63-28.95 168.01-26.03L168.01-26.03L168.01-26.03Q169.40-23.10 173.10-23.10L173.10-23.10ZM240.24 0L216.37 0L216.37-132.29L256.72-132.29L267.81-51.59L278.89-132.29L319.55-132.29L319.55 0L295.37 0L295.37-95.33L280.13 0L256.41 0L240.24-95.33L240.24 0Z" fill="url(#editing-gradient-gradient)"></path></g></g><style>text {
  font-size: 64px;
  font-family: Arial Black;
  dominant-baseline: central;
  text-anchor: middle;
}</style></svg>