<svg width="725px" height="307.36000976562497px" xmlns="http://www.w3.org/2000/svg" viewBox="-112.5 -78.68000488281248 725 307.36000976562497" style="background: none;" preserveAspectRatio="xMidYMid"><defs><linearGradient id="editing-sticker-gradient" x1="0.382780661453218" y1="0.7761514560357321" x2="0.617219338546782" y2="0.22384854396426784"><stop offset="0" stop-color="#ccc8ff"></stop><stop offset="1" stop-color="#cfefff"></stop></linearGradient><filter id="editing-sticker" x="-100%" y="-100%" width="300%" height="300%"><feMorphology operator="erode" radius="1" in="SourceAlpha" result="alpha-erode"></feMorphology><feConvolveMatrix order="3,3" divisor="1" kernelMatrix="0 1 0 1 1 1 0 1 0" in="alpha-erode" result="alpha-round"></feConvolveMatrix><feMorphology operator="dilate" radius="3.5" in="alpha-round" result="dilate-shadow"></feMorphology><feGaussianBlur in="dilate-shadow" stdDeviation="1.5" result="shadow"></feGaussianBlur><feFlood flood-color="#fff" result="flood-sticker"></feFlood><feComposite operator="in" in="flood-sticker" in2="alpha-round" result="comp-sticker"></feComposite><feMorphology operator="dilate" radius="3" in="comp-sticker" result="morph-sticker"></feMorphology><feConvolveMatrix order="3,3" divisor="1" kernelMatrix="0 1 0 1 1 1 0 1 0" in="morph-sticker" result="sticker"></feConvolveMatrix><feMerge><feMergeNode in="shadow"></feMergeNode><feMergeNode in="sticker"></feMergeNode><feMergeNode in="SourceGraphic"></feMergeNode></feMerge></filter></defs><g filter="url(#editing-sticker)"><g transform="translate(-6.1699934005737305, 135.85000228881836)"><path d="M88.33-117.48L113.85-24.76L119.89-24.76L119.89 0L60.70 0L60.70-24.76L69.76-24.76L67.35-36.84L46.81-36.84L44.39-24.76L53.45-24.76L53.45 0L1.81 0L1.81-24.76L7.85-24.76L33.37-117.48L88.33-117.48ZM56.32-82.90L50.13-52.85L64.02-52.85L57.83-82.90L56.32-82.90ZM219.25-117.48L219.25-80.94L193.28-80.94L193.28-92.71L183.62-92.71L183.62-24.76L194.19-24.76L194.19 0L130.77 0L130.77-24.76L141.34-24.76L141.34-92.71L131.67-92.71L131.67-80.94L105.70-80.94L105.70-117.48L219.25-117.48ZM281.16 2.11L281.16 2.11Q253.53 2.11 238.50-12.38L238.50-12.38L238.50-12.38Q223.48-26.88 223.48-58.74L223.48-58.74L223.48-58.74Q223.48-90.60 238.50-105.10L238.50-105.10L238.50-105.10Q253.53-119.59 281.16-119.59L281.16-119.59L281.16-119.59Q308.79-119.59 323.82-105.10L323.82-105.10L323.82-105.10Q338.84-90.60 338.84-58.74L338.84-58.74L338.84-58.74Q338.84-26.88 323.82-12.38L323.82-12.38L323.82-12.38Q308.79 2.11 281.16 2.11L281.16 2.11ZM281.16-24.76L281.16-24.76Q286.30-24.76 288.86-27.48L288.86-27.48L288.86-27.48Q291.43-30.20 291.43-35.94L291.43-35.94L291.43-81.54L291.43-81.54Q291.43-87.28 288.86-90.00L288.86-90.00L288.86-90.00Q286.30-92.71 281.16-92.71L281.16-92.71L281.16-92.71Q276.03-92.71 273.46-90.00L273.46-90.00L273.46-90.00Q270.89-87.28 270.89-81.54L270.89-81.54L270.89-35.94L270.89-35.94Q270.89-30.05 273.46-27.41L273.46-27.41L273.46-27.41Q276.03-24.76 281.16-24.76L281.16-24.76ZM510.53-117.48L510.53-92.71L502.98-92.71L502.98-24.76L510.53-24.76L510.53 0L453.45 0L453.45-24.76L460.70-24.76L460.70-77.61L435.03 0L412.68 0L386.26-76.86L386.26-24.76L393.51-24.76L393.51 0L343.98 0L343.98-24.76L351.53-24.76L351.53-92.71L343.98-92.71L343.98-117.48L413.14-117.48L428.84-70.37L443.94-117.48L510.53-117.48Z" fill="url(#editing-sticker-gradient)" stroke="#000000" stroke-width="3"></path></g></g><style>text {
  font-size: 64px;
  font-family: Arial Black;
  dominant-baseline: central;
  text-anchor: middle;
}</style></svg>