<svg width="400.50001220703126" height="198.839990234375" xmlns="http://www.w3.org/2000/svg" viewBox="49.74999389648437 -24.419995117187497 400.50001220703126 198.839990234375" style="background: none;" preserveAspectRatio="xMidYMid">
  <defs>
    <filter id="editing-vr">
      <feFlood flood-color="#f00" flood-opacity="0.7" result="c1"></feFlood>
      <feFlood flood-color="#00f" flood-opacity="0.7" result="c3"></feFlood>
      <feComposite operator="in" in="c1" in2="SourceAlpha" result="text-c1"></feComposite>
      <feComposite operator="in" in="c3" in2="SourceAlpha" result="text-c3"></feComposite>
      <feOffset in="text-c1" dx="5" dy="-1" result="text1"></feOffset>
      <feOffset in="text-c3" dx="-5" dy="1" result="text3"></feOffset>
      <feBlend in="SourceGraphic" in2="text1" mode="multiply" result="text4"></feBlend>
      <feBlend in="text4" in2="text3" mode="multiply"></feBlend>
    </filter>
  </defs>
  <g filter="url(#editing-vr)">
    <g transform="translate(117.11175155639648, 112.39999961853027)">
      <path d="M50.16 2.20L50.16 2.20L50.16 2.20Q36.08 2.20 34.76-17.82L34.76-17.82L15.84-17.82L15.84-17.82Q13.64-12.76 12.10-8.36L12.10-8.36L9.24 0L-6.16 0L28.49-72.60L52.14-72.60L56.76-19.14L56.76-19.14Q57.86-7.59 62.26-4.18L62.26-4.18L62.26-4.18Q59.07 2.20 50.16 2.20ZM25.30-39.82L19.25-25.85L34.43-25.85L33.11-54.12L33.11-57.09L25.30-39.82ZM70.40-11L70.40-11L70.40-11Q70.40-13.97 71.94-21.45L71.94-21.45L77.77-51.15L71.28-51.15L71.72-54.45L71.72-54.45Q84.92-58.41 97.68-68.09L97.68-68.09L102.96-68.09L100.32-56.10L108.90-56.10L107.91-51.15L99.44-51.15L93.83-21.45L93.83-21.45Q92.40-14.63 92.40-12.32L92.40-12.32L92.40-12.32Q92.40-7.04 97.02-5.94L97.02-5.94L97.02-5.94Q95.92-2.20 91.96 0L91.96 0L91.96 0Q88 2.20 82.39 2.20L82.39 2.20L82.39 2.20Q76.78 2.20 73.59-1.32L73.59-1.32L73.59-1.32Q70.40-4.84 70.40-11ZM131.89 2.20L131.89 2.20L131.89 2.20Q107.69 2.20 107.69-20.57L107.69-20.57L107.69-20.57Q107.69-36.74 116.60-47.19L116.60-47.19L116.60-47.19Q126.06-58.30 142.45-58.30L142.45-58.30L142.45-58.30Q154.33-58.30 160.38-52.80L160.38-52.80L160.38-52.80Q166.43-47.30 166.43-35.75L166.43-35.75L166.43-35.75Q166.43-18.15 156.97-7.92L156.97-7.92L156.97-7.92Q147.73 2.20 131.89 2.20ZM134.75-45.65L134.75-45.65L134.75-45.65Q133.43-42.68 132.38-38.23L132.38-38.23L132.38-38.23Q131.34-33.77 130.02-26.73L130.02-26.73L130.02-26.73Q128.70-19.69 128.70-11L128.70-11L128.70-11Q128.70-8.14 129.63-6.27L129.63-6.27L129.63-6.27Q130.57-4.40 133.10-4.40L133.10-4.40L133.10-4.40Q135.63-4.40 137.22-5.61L137.22-5.61L137.22-5.61Q138.82-6.82 140.03-9.68L140.03-9.68L140.03-9.68Q142.23-14.74 143.99-24.14L143.99-24.14L143.99-24.14Q145.75-33.55 145.91-37.62L145.91-37.62L145.91-37.62Q146.08-41.69 146.08-44.72L146.08-44.72L146.08-44.72Q146.08-47.74 145.20-49.72L145.20-49.72L145.20-49.72Q144.32-51.70 141.84-51.70L141.84-51.70L141.84-51.70Q139.37-51.70 137.72-50.16L137.72-50.16L137.72-50.16Q136.07-48.62 134.75-45.65ZM252.12 2.20L252.12 2.20L252.12 2.20Q238.81 2.20 238.81-8.14L238.81-8.14L238.81-8.14Q238.81-12.65 240.74-21.39L240.74-21.39L240.74-21.39Q242.66-30.14 243.32-33.66L243.32-33.66L243.32-33.66Q244.86-41.69 244.86-44.22L244.86-44.22L244.86-44.22Q244.86-49.83 240.68-49.83L240.68-49.83L240.68-49.83Q237.93-49.83 235.29-46.04L235.29-46.04L235.29-46.04Q232.65-42.24 231.44-34.65L231.44-34.65L224.62 0L203.17 2.20L209.11-27.72L209.11-27.72Q210.10-32.67 210.98-38.28L210.98-38.28L210.98-38.28Q211.86-43.89 211.86-44.77L211.86-44.77L211.86-44.77Q211.86-49.83 208.12-49.83L208.12-49.83L208.12-49.83Q205.59-49.83 202.84-46.09L202.84-46.09L202.84-46.09Q200.09-42.35 198.55-34.65L198.55-34.65L191.84 0L170.17 2.20L181.72-56.10L199.65-58.30L197.78-47.19L197.78-47.19Q200.64-53.13 205.92-55.72L205.92-55.72L205.92-55.72Q211.20-58.30 219.45-58.30L219.45-58.30L219.45-58.30Q224.18-58.30 227.26-55.99L227.26-55.99L227.26-55.99Q230.34-53.68 231.33-49.94L231.33-49.94L231.33-49.94Q233.20-53.79 237.99-56.05L237.99-56.05L237.99-56.05Q242.77-58.30 248.66-58.30L248.66-58.30L248.66-58.30Q254.54-58.30 257.46-57.04L257.46-57.04L257.46-57.04Q260.37-55.77 262.13-53.68L262.13-53.68L262.13-53.68Q265.10-49.83 265.10-42.79L265.10-42.79L265.10-42.79Q265.10-35.86 262.13-21.45L262.13-21.45L262.13-21.45Q260.59-14.41 260.59-11.82L260.59-11.82L260.59-11.82Q260.59-9.24 262.08-7.70L262.08-7.70L262.08-7.70Q263.56-6.16 265.76-5.94L265.76-5.94L265.76-5.94Q264.66-2.20 260.87 0L260.87 0L260.87 0Q257.07 2.20 252.12 2.20Z" fill="#444"></path>
    </g>
  </g>
  <style>
    text {
      font-size: 64px;
      font-family: Arial Black;
      dominant-baseline: central;
      text-anchor: middle;
    }
  </style>
</svg>
